<svg width="32" height="28" viewBox="0 0 32 28" fill="none" xmlns="http://www.w3.org/2000/svg">
<path d="M5.70565 8.66675L7.15672 4.31353C7.88266 2.13571 9.92074 0.666748 12.2164 0.666748H19.7836C22.0793 0.666748 24.1173 2.13571 24.8433 4.31353L26.2943 8.66675H27.2513C29.4604 8.66675 31.2513 10.4576 31.2513 12.6667C31.2513 12.9938 31.2111 13.3196 31.1318 13.6369L28.7176 23.2936C28.1241 25.6678 25.9909 27.3334 23.5436 27.3334H8.45644C6.00914 27.3334 3.8759 25.6678 3.28234 23.2936L0.868164 13.6369C0.332369 11.4937 1.63541 9.32197 3.77859 8.78618C4.09587 8.70686 4.42169 8.66675 4.74873 8.66675H5.70565ZM4.42535 11.3732C3.71096 11.5518 3.27661 12.2757 3.45521 12.9901L5.86939 22.6468C6.16617 23.834 7.23279 24.6667 8.45644 24.6667H23.5436C24.7672 24.6667 25.8338 23.834 26.1306 22.6468L28.5448 12.9901C28.5712 12.8844 28.5846 12.7758 28.5846 12.6667C28.5846 11.9304 27.9876 11.3334 27.2513 11.3334H4.74873C4.63972 11.3334 4.53111 11.3468 4.42535 11.3732ZM12 20.6667C12 21.4031 11.403 22.0001 10.6667 22.0001C9.93028 22.0001 9.33333 21.4031 9.33333 20.6667V15.3334C9.33333 14.597 9.93028 14.0001 10.6667 14.0001C11.403 14.0001 12 14.597 12 15.3334V20.6667ZM17.3333 20.6667C17.3333 21.4031 16.7364 22.0001 16 22.0001C15.2636 22.0001 14.6667 21.4031 14.6667 20.6667V15.3334C14.6667 14.597 15.2636 14.0001 16 14.0001C16.7364 14.0001 17.3333 14.597 17.3333 15.3334V20.6667ZM22.6667 20.6667C22.6667 21.4031 22.0697 22.0001 21.3333 22.0001C20.5969 22.0001 20 21.4031 20 20.6667V15.3334C20 14.597 20.5969 14.0001 21.3333 14.0001C22.0697 14.0001 22.6667 14.597 22.6667 15.3334V20.6667ZM23.4834 8.66675L22.3134 5.15681C21.9505 4.0679 20.9314 3.33341 19.7836 3.33341H12.2164C11.0686 3.33341 10.0495 4.0679 9.68654 5.15681L8.51656 8.66675H23.4834Z" fill="#662B00"/>
</svg>
