<svg width="896" height="32" viewBox="0 0 896 32" fill="none" xmlns="http://www.w3.org/2000/svg">
<path d="M16 18C11.5817 18 7.99999 14.4183 7.99999 10C7.99999 5.58172 11.5817 2 16 2C20.4183 2 24 5.58172 24 10C24 14.4183 20.4183 18 16 18ZM16 15.3333C18.9455 15.3333 21.3333 12.9455 21.3333 10C21.3333 7.05448 18.9455 4.66667 16 4.66667C13.0545 4.66667 10.6667 7.05448 10.6667 10C10.6667 12.9455 13.0545 15.3333 16 15.3333ZM2.66666 27.3333V24.6667C2.66666 21.7211 5.05447 19.3333 7.99999 19.3333H24C26.9455 19.3333 29.3333 21.7211 29.3333 24.6667V27.3333C29.3333 28.8061 28.1394 30 26.6667 30H5.33332C3.86056 30 2.66666 28.8061 2.66666 27.3333ZM5.33332 27.3333H26.6667V24.6667C26.6667 23.1939 25.4727 22 24 22H7.99999C6.52723 22 5.33332 23.1939 5.33332 24.6667V27.3333Z" fill="#662B00"/>
<path d="M290.667 14.0001V23.3334H293.333V14.0001H290.667ZM309.953 16.6667H311.428C312.642 15.4286 313.333 13.7708 313.333 12.0001C313.333 8.31818 310.349 5.33341 306.667 5.33341C303.206 5.33341 300.361 7.9707 300.032 11.3453C301.316 11.431 302.532 11.9794 303.448 12.8955L304.552 14.0001H305.333C307.307 14.0001 309.031 15.0726 309.953 16.6667ZM310.667 19.3334V20.6667C310.667 21.4031 310.07 22.0001 309.333 22.0001H301.333C300.597 22.0001 300 21.4031 300 20.6667C300 19.9304 300.597 19.3334 301.333 19.3334H308C308 17.8607 306.806 16.6667 305.333 16.6667H304C303.646 16.6667 303.307 16.5263 303.057 16.2762L301.562 14.7811C301.062 14.281 300.384 14.0001 299.676 14.0001H296V23.6611L303.292 25.7446C303.761 25.8784 304.257 25.8814 304.727 25.7532L317.333 22.315V22.0001C317.333 20.5273 316.139 19.3334 314.667 19.3334H310.667ZM294.48 26.0001H289.333C288.597 26.0001 288 25.4031 288 24.6667V12.6667C288 11.9304 288.597 11.3334 289.333 11.3334H294.667H297.357C297.699 6.4899 301.736 2.66675 306.667 2.66675C311.821 2.66675 316 6.84542 316 12.0001C316 13.6696 315.559 15.2707 314.751 16.6674C317.658 16.7125 320 19.0828 320 22.0001V23.3334C320 23.9347 319.598 24.4616 319.017 24.6198L305.428 28.3259C304.488 28.5822 303.496 28.5762 302.56 28.3086L294.48 26.0001Z" fill="#662B00"/>
<path d="M581.706 10.6667L583.157 6.31353C583.883 4.13571 585.921 2.66675 588.216 2.66675H595.784C598.079 2.66675 600.117 4.13571 600.843 6.31353L602.294 10.6667H603.251C605.46 10.6667 607.251 12.4576 607.251 14.6667C607.251 14.9938 607.211 15.3196 607.132 15.6369L604.718 25.2936C604.124 27.6678 601.991 29.3334 599.544 29.3334H584.456C582.009 29.3334 579.876 27.6678 579.282 25.2936L576.868 15.6369C576.332 13.4937 577.635 11.322 579.779 10.7862C580.096 10.7069 580.422 10.6667 580.749 10.6667H581.706ZM580.425 13.3732C579.711 13.5518 579.277 14.2757 579.455 14.9901L581.869 24.6468C582.166 25.834 583.233 26.6667 584.456 26.6667H599.544C600.767 26.6667 601.834 25.834 602.131 24.6468L604.545 14.9901C604.571 14.8844 604.585 14.7758 604.585 14.6667C604.585 13.9304 603.988 13.3334 603.251 13.3334H580.749C580.64 13.3334 580.531 13.3468 580.425 13.3732ZM588 22.6667C588 23.4031 587.403 24.0001 586.667 24.0001C585.93 24.0001 585.333 23.4031 585.333 22.6667V17.3334C585.333 16.597 585.93 16.0001 586.667 16.0001C587.403 16.0001 588 16.597 588 17.3334V22.6667ZM593.333 22.6667C593.333 23.4031 592.736 24.0001 592 24.0001C591.264 24.0001 590.667 23.4031 590.667 22.6667V17.3334C590.667 16.597 591.264 16.0001 592 16.0001C592.736 16.0001 593.333 16.597 593.333 17.3334V22.6667ZM598.667 22.6667C598.667 23.4031 598.07 24.0001 597.333 24.0001C596.597 24.0001 596 23.4031 596 22.6667V17.3334C596 16.597 596.597 16.0001 597.333 16.0001C598.07 16.0001 598.667 16.597 598.667 17.3334V22.6667ZM599.483 10.6667L598.313 7.15681C597.95 6.0679 596.931 5.33341 595.784 5.33341H588.216C587.069 5.33341 586.05 6.0679 585.687 7.15681L584.517 10.6667H599.483Z" fill="#662B00"/>
<path d="M880 30.6666C871.9 30.6666 865.333 24.1001 865.333 15.9999C865.333 7.89974 871.9 1.33325 880 1.33325C888.1 1.33325 894.667 7.89974 894.667 15.9999C894.667 24.1001 888.1 30.6666 880 30.6666ZM880 27.9999C886.627 27.9999 892 22.6273 892 15.9999C892 9.3725 886.627 3.99992 880 3.99992C873.373 3.99992 868 9.3725 868 15.9999C868 22.6273 873.373 27.9999 880 27.9999ZM886.288 16.8889C886.533 16.1946 887.295 15.8307 887.989 16.0761C888.683 16.3215 889.047 17.0833 888.802 17.7776C887.494 21.4768 883.987 23.9999 880 23.9999C876.013 23.9999 872.506 21.4768 871.198 17.7776C870.953 17.0833 871.317 16.3215 872.011 16.0761C872.705 15.8307 873.467 16.1946 873.712 16.8889C874.646 19.5306 877.152 21.3333 880 21.3333C882.848 21.3333 885.354 19.5306 886.288 16.8889ZM876 13.3333C875.264 13.3333 874.667 12.7363 874.667 11.9999C874.667 11.2635 875.264 10.6666 876 10.6666C876.736 10.6666 877.333 11.2635 877.333 11.9999C877.333 12.7363 876.736 13.3333 876 13.3333ZM884 13.3333C883.264 13.3333 882.667 12.7363 882.667 11.9999C882.667 11.2635 883.264 10.6666 884 10.6666C884.736 10.6666 885.333 11.2635 885.333 11.9999C885.333 12.7363 884.736 13.3333 884 13.3333Z" fill="#662B00"/>
<path d="M48 15C47.4477 15 47 15.4477 47 16C47 16.5523 47.4477 17 48 17V15ZM272.707 16.7071C273.098 16.3166 273.098 15.6834 272.707 15.2929L266.343 8.92893C265.953 8.53841 265.319 8.53841 264.929 8.92893C264.538 9.31946 264.538 9.95262 264.929 10.3431L270.586 16L264.929 21.6569C264.538 22.0474 264.538 22.6805 264.929 23.0711C265.319 23.4616 265.953 23.4616 266.343 23.0711L272.707 16.7071ZM49.9649 17C50.5172 17 50.9649 16.5523 50.9649 16C50.9649 15.4477 50.5172 15 49.9649 15V17ZM57.8246 15C57.2723 15 56.8246 15.4477 56.8246 16C56.8246 16.5523 57.2723 17 57.8246 17V15ZM61.7544 17C62.3067 17 62.7544 16.5523 62.7544 16C62.7544 15.4477 62.3067 15 61.7544 15V17ZM69.614 15C69.0618 15 68.614 15.4477 68.614 16C68.614 16.5523 69.0618 17 69.614 17V15ZM73.5439 17C74.0961 17 74.5439 16.5523 74.5439 16C74.5439 15.4477 74.0961 15 73.5439 15V17ZM81.4035 15C80.8512 15 80.4035 15.4477 80.4035 16C80.4035 16.5523 80.8512 17 81.4035 17V15ZM85.3333 17C85.8856 17 86.3333 16.5523 86.3333 16C86.3333 15.4477 85.8856 15 85.3333 15V17ZM93.193 15C92.6407 15 92.193 15.4477 92.193 16C92.193 16.5523 92.6407 17 93.193 17V15ZM97.1228 17C97.6751 17 98.1228 16.5523 98.1228 16C98.1228 15.4477 97.6751 15 97.1228 15V17ZM104.982 15C104.43 15 103.982 15.4477 103.982 16C103.982 16.5523 104.43 17 104.982 17V15ZM108.912 17C109.465 17 109.912 16.5523 109.912 16C109.912 15.4477 109.465 15 108.912 15V17ZM116.772 15C116.22 15 115.772 15.4477 115.772 16C115.772 16.5523 116.22 17 116.772 17V15ZM120.702 17C121.254 17 121.702 16.5523 121.702 16C121.702 15.4477 121.254 15 120.702 15V17ZM128.561 15C128.009 15 127.561 15.4477 127.561 16C127.561 16.5523 128.009 17 128.561 17V15ZM132.491 17C133.044 17 133.491 16.5523 133.491 16C133.491 15.4477 133.044 15 132.491 15V17ZM140.351 15C139.799 15 139.351 15.4477 139.351 16C139.351 16.5523 139.799 17 140.351 17V15ZM144.281 17C144.833 17 145.281 16.5523 145.281 16C145.281 15.4477 144.833 15 144.281 15V17ZM152.14 15C151.588 15 151.14 15.4477 151.14 16C151.14 16.5523 151.588 17 152.14 17V15ZM156.07 17C156.622 17 157.07 16.5523 157.07 16C157.07 15.4477 156.622 15 156.07 15V17ZM163.93 15C163.378 15 162.93 15.4477 162.93 16C162.93 16.5523 163.378 17 163.93 17V15ZM167.86 17C168.412 17 168.86 16.5523 168.86 16C168.86 15.4477 168.412 15 167.86 15V17ZM175.719 15C175.167 15 174.719 15.4477 174.719 16C174.719 16.5523 175.167 17 175.719 17V15ZM179.649 17C180.201 17 180.649 16.5523 180.649 16C180.649 15.4477 180.201 15 179.649 15V17ZM187.509 15C186.956 15 186.509 15.4477 186.509 16C186.509 16.5523 186.956 17 187.509 17V15ZM191.439 17C191.991 17 192.439 16.5523 192.439 16C192.439 15.4477 191.991 15 191.439 15V17ZM199.298 15C198.746 15 198.298 15.4477 198.298 16C198.298 16.5523 198.746 17 199.298 17V15ZM203.228 17C203.78 17 204.228 16.5523 204.228 16C204.228 15.4477 203.78 15 203.228 15V17ZM211.088 15C210.535 15 210.088 15.4477 210.088 16C210.088 16.5523 210.535 17 211.088 17V15ZM215.018 17C215.57 17 216.018 16.5523 216.018 16C216.018 15.4477 215.57 15 215.018 15V17ZM222.877 15C222.325 15 221.877 15.4477 221.877 16C221.877 16.5523 222.325 17 222.877 17V15ZM226.807 17C227.359 17 227.807 16.5523 227.807 16C227.807 15.4477 227.359 15 226.807 15V17ZM234.667 15C234.114 15 233.667 15.4477 233.667 16C233.667 16.5523 234.114 17 234.667 17V15ZM238.596 17C239.149 17 239.596 16.5523 239.596 16C239.596 15.4477 239.149 15 238.596 15V17ZM246.456 15C245.904 15 245.456 15.4477 245.456 16C245.456 16.5523 245.904 17 246.456 17V15ZM250.386 17C250.938 17 251.386 16.5523 251.386 16C251.386 15.4477 250.938 15 250.386 15V17ZM258.246 15C257.693 15 257.246 15.4477 257.246 16C257.246 16.5523 257.693 17 258.246 17V15ZM262.175 17C262.728 17 263.175 16.5523 263.175 16C263.175 15.4477 262.728 15 262.175 15V17ZM270.035 15C269.483 15 269.035 15.4477 269.035 16C269.035 16.5523 269.483 17 270.035 17V15ZM48 17H49.9649V15H48V17ZM57.8246 17H61.7544V15L57.8246 15V17ZM69.614 17H73.5439V15L69.614 15V17ZM81.4035 17L85.3333 17V15H81.4035V17ZM93.193 17H97.1228V15L93.193 15V17ZM104.982 17H108.912V15H104.982V17ZM116.772 17H120.702V15H116.772V17ZM128.561 17H132.491V15L128.561 15V17ZM140.351 17L144.281 17V15H140.351V17ZM152.14 17H156.07V15L152.14 15V17ZM163.93 17H167.86V15H163.93V17ZM175.719 17H179.649V15H175.719V17ZM187.509 17H191.439V15L187.509 15V17ZM199.298 17L203.228 17V15H199.298V17ZM211.088 17L215.018 17V15L211.088 15V17ZM222.877 17H226.807V15L222.877 15V17ZM234.667 17H238.596V15H234.667V17ZM246.456 17H250.386V15L246.456 15V17ZM258.246 17L262.175 17V15L258.246 15V17ZM270.035 17H272V15H270.035V17Z" fill="#662B00"/>
<path d="M336 15C335.448 15 335 15.4477 335 16C335 16.5523 335.448 17 336 17V15ZM560.707 16.7071C561.098 16.3166 561.098 15.6834 560.707 15.2929L554.343 8.92893C553.953 8.53841 553.319 8.53841 552.929 8.92893C552.538 9.31946 552.538 9.95262 552.929 10.3431L558.586 16L552.929 21.6569C552.538 22.0474 552.538 22.6805 552.929 23.0711C553.319 23.4616 553.953 23.4616 554.343 23.0711L560.707 16.7071ZM337.965 17C338.517 17 338.965 16.5523 338.965 16C338.965 15.4477 338.517 15 337.965 15V17ZM345.825 15C345.272 15 344.825 15.4477 344.825 16C344.825 16.5523 345.272 17 345.825 17V15ZM349.754 17C350.307 17 350.754 16.5523 350.754 16C350.754 15.4477 350.307 15 349.754 15V17ZM357.614 15C357.062 15 356.614 15.4477 356.614 16C356.614 16.5523 357.062 17 357.614 17V15ZM361.544 17C362.096 17 362.544 16.5523 362.544 16C362.544 15.4477 362.096 15 361.544 15V17ZM369.404 15C368.851 15 368.404 15.4477 368.404 16C368.404 16.5523 368.851 17 369.404 17V15ZM373.333 17C373.886 17 374.333 16.5523 374.333 16C374.333 15.4477 373.886 15 373.333 15V17ZM381.193 15C380.641 15 380.193 15.4477 380.193 16C380.193 16.5523 380.641 17 381.193 17V15ZM385.123 17C385.675 17 386.123 16.5523 386.123 16C386.123 15.4477 385.675 15 385.123 15V17ZM392.982 15C392.43 15 391.982 15.4477 391.982 16C391.982 16.5523 392.43 17 392.982 17V15ZM396.912 17C397.465 17 397.912 16.5523 397.912 16C397.912 15.4477 397.465 15 396.912 15V17ZM404.772 15C404.22 15 403.772 15.4477 403.772 16C403.772 16.5523 404.22 17 404.772 17V15ZM408.702 17C409.254 17 409.702 16.5523 409.702 16C409.702 15.4477 409.254 15 408.702 15V17ZM416.561 15C416.009 15 415.561 15.4477 415.561 16C415.561 16.5523 416.009 17 416.561 17V15ZM420.491 17C421.044 17 421.491 16.5523 421.491 16C421.491 15.4477 421.044 15 420.491 15V17ZM428.351 15C427.799 15 427.351 15.4477 427.351 16C427.351 16.5523 427.799 17 428.351 17V15ZM432.281 17C432.833 17 433.281 16.5523 433.281 16C433.281 15.4477 432.833 15 432.281 15V17ZM440.14 15C439.588 15 439.14 15.4477 439.14 16C439.14 16.5523 439.588 17 440.14 17V15ZM444.07 17C444.622 17 445.07 16.5523 445.07 16C445.07 15.4477 444.622 15 444.07 15V17ZM451.93 15C451.378 15 450.93 15.4477 450.93 16C450.93 16.5523 451.378 17 451.93 17V15ZM455.86 17C456.412 17 456.86 16.5523 456.86 16C456.86 15.4477 456.412 15 455.86 15V17ZM463.719 15C463.167 15 462.719 15.4477 462.719 16C462.719 16.5523 463.167 17 463.719 17V15ZM467.649 17C468.201 17 468.649 16.5523 468.649 16C468.649 15.4477 468.201 15 467.649 15V17ZM475.509 15C474.956 15 474.509 15.4477 474.509 16C474.509 16.5523 474.956 17 475.509 17V15ZM479.439 17C479.991 17 480.439 16.5523 480.439 16C480.439 15.4477 479.991 15 479.439 15V17ZM487.298 15C486.746 15 486.298 15.4477 486.298 16C486.298 16.5523 486.746 17 487.298 17V15ZM491.228 17C491.78 17 492.228 16.5523 492.228 16C492.228 15.4477 491.78 15 491.228 15V17ZM499.088 15C498.535 15 498.088 15.4477 498.088 16C498.088 16.5523 498.535 17 499.088 17V15ZM503.018 17C503.57 17 504.018 16.5523 504.018 16C504.018 15.4477 503.57 15 503.018 15V17ZM510.877 15C510.325 15 509.877 15.4477 509.877 16C509.877 16.5523 510.325 17 510.877 17V15ZM514.807 17C515.359 17 515.807 16.5523 515.807 16C515.807 15.4477 515.359 15 514.807 15V17ZM522.667 15C522.114 15 521.667 15.4477 521.667 16C521.667 16.5523 522.114 17 522.667 17V15ZM526.596 17C527.149 17 527.596 16.5523 527.596 16C527.596 15.4477 527.149 15 526.596 15V17ZM534.456 15C533.904 15 533.456 15.4477 533.456 16C533.456 16.5523 533.904 17 534.456 17V15ZM538.386 17C538.938 17 539.386 16.5523 539.386 16C539.386 15.4477 538.938 15 538.386 15V17ZM546.246 15C545.693 15 545.246 15.4477 545.246 16C545.246 16.5523 545.693 17 546.246 17V15ZM550.175 17C550.728 17 551.175 16.5523 551.175 16C551.175 15.4477 550.728 15 550.175 15V17ZM558.035 15C557.483 15 557.035 15.4477 557.035 16C557.035 16.5523 557.483 17 558.035 17V15ZM336 17H337.965V15H336V17ZM345.825 17H349.754V15H345.825V17ZM357.614 17H361.544V15H357.614V17ZM369.404 17H373.333V15H369.404V17ZM381.193 17H385.123V15H381.193V17ZM392.982 17H396.912V15H392.982V17ZM404.772 17H408.702V15H404.772V17ZM416.561 17H420.491V15H416.561V17ZM428.351 17H432.281V15H428.351V17ZM440.14 17H444.07V15H440.14V17ZM451.93 17H455.86V15H451.93V17ZM463.719 17H467.649V15H463.719V17ZM475.509 17H479.439V15H475.509V17ZM487.298 17H491.228V15H487.298V17ZM499.088 17H503.018V15H499.088V17ZM510.877 17H514.807V15H510.877V17ZM522.667 17H526.596V15H522.667V17ZM534.456 17H538.386V15H534.456V17ZM546.246 17H550.175V15H546.246V17ZM558.035 17H560V15H558.035V17Z" fill="#662B00"/>
<path d="M624 15C623.448 15 623 15.4477 623 16C623 16.5523 623.448 17 624 17V15ZM848.707 16.7071C849.098 16.3166 849.098 15.6834 848.707 15.2929L842.343 8.92893C841.953 8.53841 841.319 8.53841 840.929 8.92893C840.538 9.31946 840.538 9.95262 840.929 10.3431L846.586 16L840.929 21.6569C840.538 22.0474 840.538 22.6805 840.929 23.0711C841.319 23.4616 841.953 23.4616 842.343 23.0711L848.707 16.7071ZM625.965 17C626.517 17 626.965 16.5523 626.965 16C626.965 15.4477 626.517 15 625.965 15V17ZM633.825 15C633.272 15 632.825 15.4477 632.825 16C632.825 16.5523 633.272 17 633.825 17V15ZM637.754 17C638.307 17 638.754 16.5523 638.754 16C638.754 15.4477 638.307 15 637.754 15V17ZM645.614 15C645.062 15 644.614 15.4477 644.614 16C644.614 16.5523 645.062 17 645.614 17V15ZM649.544 17C650.096 17 650.544 16.5523 650.544 16C650.544 15.4477 650.096 15 649.544 15V17ZM657.404 15C656.851 15 656.404 15.4477 656.404 16C656.404 16.5523 656.851 17 657.404 17V15ZM661.333 17C661.886 17 662.333 16.5523 662.333 16C662.333 15.4477 661.886 15 661.333 15V17ZM669.193 15C668.641 15 668.193 15.4477 668.193 16C668.193 16.5523 668.641 17 669.193 17V15ZM673.123 17C673.675 17 674.123 16.5523 674.123 16C674.123 15.4477 673.675 15 673.123 15V17ZM680.982 15C680.43 15 679.982 15.4477 679.982 16C679.982 16.5523 680.43 17 680.982 17V15ZM684.912 17C685.465 17 685.912 16.5523 685.912 16C685.912 15.4477 685.465 15 684.912 15V17ZM692.772 15C692.22 15 691.772 15.4477 691.772 16C691.772 16.5523 692.22 17 692.772 17V15ZM696.702 17C697.254 17 697.702 16.5523 697.702 16C697.702 15.4477 697.254 15 696.702 15V17ZM704.561 15C704.009 15 703.561 15.4477 703.561 16C703.561 16.5523 704.009 17 704.561 17V15ZM708.491 17C709.044 17 709.491 16.5523 709.491 16C709.491 15.4477 709.044 15 708.491 15V17ZM716.351 15C715.799 15 715.351 15.4477 715.351 16C715.351 16.5523 715.799 17 716.351 17V15ZM720.281 17C720.833 17 721.281 16.5523 721.281 16C721.281 15.4477 720.833 15 720.281 15V17ZM728.14 15C727.588 15 727.14 15.4477 727.14 16C727.14 16.5523 727.588 17 728.14 17V15ZM732.07 17C732.622 17 733.07 16.5523 733.07 16C733.07 15.4477 732.622 15 732.07 15V17ZM739.93 15C739.378 15 738.93 15.4477 738.93 16C738.93 16.5523 739.378 17 739.93 17V15ZM743.86 17C744.412 17 744.86 16.5523 744.86 16C744.86 15.4477 744.412 15 743.86 15V17ZM751.719 15C751.167 15 750.719 15.4477 750.719 16C750.719 16.5523 751.167 17 751.719 17V15ZM755.649 17C756.201 17 756.649 16.5523 756.649 16C756.649 15.4477 756.201 15 755.649 15V17ZM763.509 15C762.956 15 762.509 15.4477 762.509 16C762.509 16.5523 762.956 17 763.509 17V15ZM767.439 17C767.991 17 768.439 16.5523 768.439 16C768.439 15.4477 767.991 15 767.439 15V17ZM775.298 15C774.746 15 774.298 15.4477 774.298 16C774.298 16.5523 774.746 17 775.298 17V15ZM779.228 17C779.78 17 780.228 16.5523 780.228 16C780.228 15.4477 779.78 15 779.228 15V17ZM787.088 15C786.535 15 786.088 15.4477 786.088 16C786.088 16.5523 786.535 17 787.088 17V15ZM791.018 17C791.57 17 792.018 16.5523 792.018 16C792.018 15.4477 791.57 15 791.018 15V17ZM798.877 15C798.325 15 797.877 15.4477 797.877 16C797.877 16.5523 798.325 17 798.877 17V15ZM802.807 17C803.359 17 803.807 16.5523 803.807 16C803.807 15.4477 803.359 15 802.807 15V17ZM810.667 15C810.114 15 809.667 15.4477 809.667 16C809.667 16.5523 810.114 17 810.667 17V15ZM814.596 17C815.149 17 815.596 16.5523 815.596 16C815.596 15.4477 815.149 15 814.596 15V17ZM822.456 15C821.904 15 821.456 15.4477 821.456 16C821.456 16.5523 821.904 17 822.456 17V15ZM826.386 17C826.938 17 827.386 16.5523 827.386 16C827.386 15.4477 826.938 15 826.386 15V17ZM834.246 15C833.693 15 833.246 15.4477 833.246 16C833.246 16.5523 833.693 17 834.246 17V15ZM838.175 17C838.728 17 839.175 16.5523 839.175 16C839.175 15.4477 838.728 15 838.175 15V17ZM846.035 15C845.483 15 845.035 15.4477 845.035 16C845.035 16.5523 845.483 17 846.035 17V15ZM624 17H625.965V15H624V17ZM633.825 17H637.754V15H633.825V17ZM645.614 17H649.544V15H645.614V17ZM657.404 17H661.333V15H657.404V17ZM669.193 17H673.123V15H669.193V17ZM680.982 17H684.912V15H680.982V17ZM692.772 17H696.702V15H692.772V17ZM704.561 17H708.491V15H704.561V17ZM716.351 17H720.281V15H716.351V17ZM728.14 17H732.07V15H728.14V17ZM739.93 17H743.86V15H739.93V17ZM751.719 17H755.649V15H751.719V17ZM763.509 17H767.439V15H763.509V17ZM775.298 17H779.228V15H775.298V17ZM787.088 17H791.018V15H787.088V17ZM798.877 17H802.807V15H798.877V17ZM810.667 17H814.596V15H810.667V17ZM822.456 17H826.386V15H822.456V17ZM834.246 17H838.175V15H834.246V17ZM846.035 17H848V15H846.035V17Z" fill="#662B00"/>
</svg>
