<svg width="32" height="27" viewBox="0 0 32 27" fill="none" xmlns="http://www.w3.org/2000/svg">
<path d="M2.66667 12.0001V21.3334H5.33333V12.0001H2.66667ZM21.9532 14.6667H23.4276C24.6416 13.4286 25.3333 11.7708 25.3333 10.0001C25.3333 6.31818 22.3486 3.33341 18.6667 3.33341C15.2057 3.33341 12.3607 5.9707 12.0318 9.34525C13.3165 9.43097 14.5316 9.97939 15.4477 10.8955L16.5523 12.0001H17.3333C19.3074 12.0001 21.031 13.0726 21.9532 14.6667ZM22.6667 17.3334V18.6667C22.6667 19.4031 22.0697 20.0001 21.3333 20.0001H13.3333C12.597 20.0001 12 19.4031 12 18.6667C12 17.9304 12.597 17.3334 13.3333 17.3334H20C20 15.8607 18.8061 14.6667 17.3333 14.6667H16C15.6464 14.6667 15.3072 14.5263 15.0572 14.2762L13.5621 12.7811C13.062 12.281 12.3837 12.0001 11.6765 12.0001H8V21.6611L15.2923 23.7446C15.7607 23.8784 16.2567 23.8814 16.7266 23.7532L29.3333 20.315V20.0001C29.3333 18.5273 28.1394 17.3334 26.6667 17.3334H22.6667ZM6.47977 24.0001H1.33333C0.596954 24.0001 0 23.4031 0 22.6667V10.6667C0 9.93037 0.596954 9.33342 1.33333 9.33342H6.66667H9.35678C9.69861 4.4899 13.7362 0.666748 18.6667 0.666748C23.8213 0.666748 28 4.84542 28 10.0001C28 11.6696 27.5588 13.2707 26.7511 14.6674C29.6577 14.7125 32 17.0828 32 20.0001V21.3334C32 21.9347 31.5976 22.4616 31.0175 22.6198L17.4282 26.3259C16.4884 26.5822 15.4964 26.5762 14.5598 26.3086L6.47977 24.0001Z" fill="#842E14"/>
</svg>
