<svg width="30" height="30" viewBox="0 0 30 30" fill="none" xmlns="http://www.w3.org/2000/svg">
<path d="M15 29.6668C6.89986 29.6668 0.333374 23.1003 0.333374 15.0002C0.333374 6.89999 6.89986 0.333496 15 0.333496C23.1002 0.333496 29.6667 6.89999 29.6667 15.0002C29.6667 23.1003 23.1002 29.6668 15 29.6668ZM15 27.0002C21.6275 27.0002 27 21.6276 27 15.0002C27 8.37274 21.6275 3.00016 15 3.00016C8.37262 3.00016 3.00004 8.37274 3.00004 15.0002C3.00004 21.6276 8.37262 27.0002 15 27.0002ZM21.2877 15.8892C21.5331 15.1949 22.2949 14.831 22.9892 15.0764C23.6834 15.3218 24.0473 16.0835 23.8019 16.7778C22.4945 20.477 18.9872 23.0002 15 23.0002C11.0129 23.0002 7.50562 20.477 6.19814 16.7778C5.95274 16.0835 6.31664 15.3218 7.01093 15.0764C7.70522 14.831 8.46698 15.1949 8.71237 15.8892C9.64608 18.5309 12.1518 20.3335 15 20.3335C17.8482 20.3335 20.354 18.5309 21.2877 15.8892ZM11 12.3335C10.2637 12.3335 9.66671 11.7365 9.66671 11.0002C9.66671 10.2638 10.2637 9.66683 11 9.66683C11.7364 9.66683 12.3334 10.2638 12.3334 11.0002C12.3334 11.7365 11.7364 12.3335 11 12.3335ZM19 12.3335C18.2637 12.3335 17.6667 11.7365 17.6667 11.0002C17.6667 10.2638 18.2637 9.66683 19 9.66683C19.7364 9.66683 20.3334 10.2638 20.3334 11.0002C20.3334 11.7365 19.7364 12.3335 19 12.3335Z" fill="#842E14"/>
</svg>
