<svg width="32" height="28" viewBox="0 0 32 28" fill="none" xmlns="http://www.w3.org/2000/svg">
<path d="M5.70565 8.66666L7.15672 4.31344C7.88266 2.13562 9.92074 0.666656 12.2164 0.666656H19.7836C22.0793 0.666656 24.1173 2.13562 24.8433 4.31344L26.2943 8.66666H27.2513C29.4604 8.66666 31.2513 10.4575 31.2513 12.6667C31.2513 12.9937 31.2111 13.3195 31.1318 13.6368L28.7176 23.2935C28.1241 25.6677 25.9909 27.3333 23.5436 27.3333H8.45644C6.00914 27.3333 3.8759 25.6677 3.28234 23.2935L0.868164 13.6368C0.332369 11.4936 1.63541 9.32188 3.77859 8.78609C4.09587 8.70677 4.42169 8.66666 4.74873 8.66666H5.70565ZM4.42535 11.3731C3.71096 11.5517 3.27661 12.2756 3.45521 12.99L5.86939 22.6468C6.16617 23.8339 7.23279 24.6667 8.45644 24.6667H23.5436C24.7672 24.6667 25.8338 23.8339 26.1306 22.6468L28.5448 12.99C28.5712 12.8843 28.5846 12.7757 28.5846 12.6667C28.5846 11.9303 27.9876 11.3333 27.2513 11.3333H4.74873C4.63972 11.3333 4.53111 11.3467 4.42535 11.3731ZM12 20.6667C12 21.403 11.403 22 10.6667 22C9.93028 22 9.33333 21.403 9.33333 20.6667V15.3333C9.33333 14.5969 9.93028 14 10.6667 14C11.403 14 12 14.5969 12 15.3333V20.6667ZM17.3333 20.6667C17.3333 21.403 16.7364 22 16 22C15.2636 22 14.6667 21.403 14.6667 20.6667V15.3333C14.6667 14.5969 15.2636 14 16 14C16.7364 14 17.3333 14.5969 17.3333 15.3333V20.6667ZM22.6667 20.6667C22.6667 21.403 22.0697 22 21.3333 22C20.5969 22 20 21.403 20 20.6667V15.3333C20 14.5969 20.5969 14 21.3333 14C22.0697 14 22.6667 14.5969 22.6667 15.3333V20.6667ZM23.4834 8.66666L22.3134 5.15672C21.9505 4.0678 20.9314 3.33332 19.7836 3.33332H12.2164C11.0686 3.33332 10.0495 4.0678 9.68654 5.15672L8.51656 8.66666H23.4834Z" fill="#FF6B00"/>
</svg>
