<svg width="16" height="42" viewBox="0 0 16 42" fill="none" xmlns="http://www.w3.org/2000/svg">
<path d="M9 1C9 0.447715 8.55228 0 8 0C7.44772 0 7 0.447715 7 1L9 1ZM7.29289 41.7071C7.68342 42.0976 8.31658 42.0976 8.70711 41.7071L15.0711 35.3431C15.4616 34.9526 15.4616 34.3195 15.0711 33.9289C14.6805 33.5384 14.0474 33.5384 13.6569 33.9289L8 39.5858L2.34315 33.9289C1.95262 33.5384 1.31946 33.5384 0.928932 33.9289C0.538408 34.3195 0.538408 34.9526 0.928932 35.3431L7.29289 41.7071ZM7 3.22222C7 3.77451 7.44772 4.22222 8 4.22222C8.55228 4.22222 9 3.77451 9 3.22222H7ZM9 12.1111C9 11.5588 8.55228 11.1111 8 11.1111C7.44772 11.1111 7 11.5588 7 12.1111H9ZM7 16.5556C7 17.1078 7.44772 17.5556 8 17.5556C8.55228 17.5556 9 17.1078 9 16.5556H7ZM9 25.4444C9 24.8922 8.55228 24.4444 8 24.4444C7.44772 24.4444 7 24.8922 7 25.4444H9ZM7 29.8889C7 30.4412 7.44772 30.8889 8 30.8889C8.55228 30.8889 9 30.4412 9 29.8889H7ZM9 38.7778C9 38.2255 8.55228 37.7778 8 37.7778C7.44772 37.7778 7 38.2255 7 38.7778H9ZM7 1V3.22222H9V1L7 1ZM7 12.1111V16.5556H9V12.1111H7ZM7 25.4444V29.8889H9V25.4444H7ZM7 38.7778V41H9V38.7778H7Z" fill="#662B00"/>
</svg>
