<svg width="28" height="28" viewBox="0 0 28 28" fill="none" xmlns="http://www.w3.org/2000/svg">
<path d="M14 16C9.58168 16 5.99996 12.4183 5.99996 8C5.99996 3.58172 9.58168 0 14 0C18.4182 0 22 3.58172 22 8C22 12.4183 18.4182 16 14 16ZM14 13.3333C16.9455 13.3333 19.3333 10.9455 19.3333 8C19.3333 5.05448 16.9455 2.66667 14 2.66667C11.0544 2.66667 8.66663 5.05448 8.66663 8C8.66663 10.9455 11.0544 13.3333 14 13.3333ZM0.666626 25.3333V22.6667C0.666626 19.7211 3.05444 17.3333 5.99996 17.3333H22C24.9455 17.3333 27.3333 19.7211 27.3333 22.6667V25.3333C27.3333 26.8061 26.1394 28 24.6666 28H3.33329C1.86053 28 0.666626 26.8061 0.666626 25.3333ZM3.33329 25.3333H24.6666V22.6667C24.6666 21.1939 23.4727 20 22 20H5.99996C4.5272 20 3.33329 21.1939 3.33329 22.6667V25.3333Z" fill="#842E14"/>
</svg>
